<svg width="203" height="130" fill="none" xmlns="http://www.w3.org/2000/svg">
  <path d="M55.04 129.8c-8.88 0-16.62-1.2-23.22-3.6-6.6-2.4-12.12-5.7-16.56-9.9a44.86 44.86 0 0 1-10.08-14.76A55.73 55.73 0 0 1 1.04 83C.8 79.76.62 75.92.5 71.48V58.16c.12-4.56.3-8.52.54-11.88A52.38 52.38 0 0 1 5.18 28.1 42.72 42.72 0 0 1 15.8 13.52 47.23 47.23 0 0 1 32.36 3.8C38.84 1.4 46.4.2 55.04.2c8.52 0 16.02 1.2 22.5 3.6 6.6 2.28 12.12 5.52 16.56 9.72a40.73 40.73 0 0 1 10.44 14.58 52.6 52.6 0 0 1 4.5 18.18c.24 3.36.36 7.32.36 11.88v13.32c0 4.44-.12 8.28-.36 11.52a59 59 0 0 1-4.32 18.54 41.51 41.51 0 0 1-10.08 14.76c-4.44 4.2-9.96 7.5-16.56 9.9-6.6 2.4-14.28 3.6-23.04 3.6Zm0-30.78c4.8 0 8.28-1.56 10.44-4.68 2.16-3.12 3.3-7.2 3.42-12.24.24-3.48.36-7.26.36-11.34V58.52c0-4.2-.12-7.92-.36-11.16-.12-4.8-1.26-8.76-3.42-11.88-2.04-3.24-5.52-4.92-10.44-5.04-4.92.12-8.4 1.8-10.44 5.04-2.04 3.12-3.18 7.08-3.42 11.88-.12 3.24-.24 6.96-.36 11.16v12.24l.36 11.34c.24 5.04 1.38 9.12 3.42 12.24 2.16 3.12 5.64 4.68 10.44 4.68ZM168.12 128a5.02 5.02 0 0 1-3.42-1.26 5.02 5.02 0 0 1-1.26-3.42v-79.2l-22.5 17.28c-1.2.72-2.4.96-3.6.72a5.6 5.6 0 0 1-3.06-2.16l-13.14-17.1a6.1 6.1 0 0 1-.72-3.6 4.35 4.35 0 0 1 2.16-3.06l42.48-32.94c.6-.48 1.2-.78 1.8-.9.6-.24 1.32-.36 2.16-.36h28.26c1.32 0 2.46.48 3.42 1.44a4.1 4.1 0 0 1 1.44 3.24v116.64c0 1.32-.48 2.46-1.44 3.42a5.02 5.02 0 0 1-3.42 1.26h-29.16Z" fill="#fff"/>
</svg>
