<svg width="233" height="131" fill="none" xmlns="http://www.w3.org/2000/svg">
  <path d="M55.14 130.8c-8.88 0-16.62-1.2-23.22-3.6-6.6-2.4-12.12-5.7-16.56-9.9a44.86 44.86 0 0 1-10.08-14.76A55.73 55.73 0 0 1 1.14 84C.9 80.76.72 76.92.6 72.48V59.16c.12-4.56.3-8.52.54-11.88A52.38 52.38 0 0 1 5.28 29.1 42.72 42.72 0 0 1 15.9 14.52 47.23 47.23 0 0 1 32.46 4.8c6.48-2.4 14.04-3.6 22.68-3.6 8.52 0 16.02 1.2 22.5 3.6 6.6 2.28 12.12 5.52 16.56 9.72a40.73 40.73 0 0 1 10.44 14.58 52.6 52.6 0 0 1 4.5 18.18c.24 3.36.36 7.32.36 11.88v13.32c0 4.44-.12 8.28-.36 11.52a59 59 0 0 1-4.32 18.54 41.5 41.5 0 0 1-10.08 14.76c-4.44 4.2-9.96 7.5-16.56 9.9-6.6 2.4-14.28 3.6-23.04 3.6Zm0-30.78c4.8 0 8.28-1.56 10.44-4.68 2.16-3.12 3.3-7.2 3.42-12.24.24-3.48.36-7.26.36-11.34V59.52c0-4.2-.12-7.92-.36-11.16-.12-4.8-1.26-8.76-3.42-11.88-2.04-3.24-5.52-4.92-10.44-5.04-4.92.12-8.4 1.8-10.44 5.04-2.04 3.12-3.18 7.08-3.42 11.88-.12 3.24-.24 6.96-.36 11.16v12.24l.36 11.34c.24 5.04 1.38 9.12 3.42 12.24 2.16 3.12 5.64 4.68 10.44 4.68ZM129.7 129a5.02 5.02 0 0 1-3.42-1.26 5.02 5.02 0 0 1-1.26-3.42v-15.66c0-.84.18-2.22.54-4.14.48-1.92 1.8-3.66 3.96-5.22l10.44-9.9a2742.63 2742.63 0 0 0 27.54-20.88c7.32-5.64 12.78-10.56 16.38-14.76 3.72-4.2 5.58-8.1 5.58-11.7 0-2.88-.72-5.34-2.16-7.38-1.32-2.16-4.02-3.24-8.1-3.24-3 0-5.4.66-7.2 1.98a13.4 13.4 0 0 0-4.14 4.86 43.14 43.14 0 0 0-1.98 5.4c-.48 1.68-1.32 2.82-2.52 3.42-1.2.48-2.58.72-4.14.72h-28.08a3.9 3.9 0 0 1-2.88-1.08 3.66 3.66 0 0 1-1.08-2.7 40.64 40.64 0 0 1 3.96-17.28 44.68 44.68 0 0 1 10.8-13.86 46.34 46.34 0 0 1 16.2-9A64.57 64.57 0 0 1 179.02.66c10.56 0 19.62 1.62 27.18 4.86 7.56 3.24 13.38 7.8 17.46 13.68s6.12 12.9 6.12 21.06c0 6.24-1.44 12.06-4.32 17.46-2.88 5.28-6.96 10.38-12.24 15.3a188.98 188.98 0 0 1-18.72 15.12l-8.82 8.64h42.12c1.32 0 2.4.48 3.24 1.44.96.96 1.44 2.1 1.44 3.42v22.68c0 1.32-.48 2.46-1.44 3.42a4.39 4.39 0 0 1-3.24 1.26h-98.1Z" fill="#fff"/>
</svg>
