<svg width="235" height="130" fill="none" xmlns="http://www.w3.org/2000/svg">
  <path d="M54.91 129.8c-8.88 0-16.62-1.2-23.22-3.6-6.6-2.4-12.12-5.7-16.56-9.9a44.86 44.86 0 0 1-10.08-14.76A55.73 55.73 0 0 1 .91 83C.67 79.76.5 75.92.37 71.48V58.16c.12-4.56.3-8.52.54-11.88A52.38 52.38 0 0 1 5.05 28.1a42.72 42.72 0 0 1 10.62-14.58A47.23 47.23 0 0 1 32.23 3.8C38.71 1.4 46.27.2 54.91.2c8.52 0 16.02 1.2 22.5 3.6 6.6 2.28 12.12 5.52 16.56 9.72a40.73 40.73 0 0 1 10.44 14.58 52.6 52.6 0 0 1 4.5 18.18c.24 3.36.36 7.32.36 11.88v13.32c0 4.44-.12 8.28-.36 11.52a59 59 0 0 1-4.32 18.54 41.51 41.51 0 0 1-10.08 14.76c-4.44 4.2-9.96 7.5-16.56 9.9-6.6 2.4-14.28 3.6-23.04 3.6Zm0-30.78c4.8 0 8.28-1.56 10.44-4.68 2.16-3.12 3.3-7.2 3.42-12.24.24-3.48.36-7.26.36-11.34V58.52c0-4.2-.12-7.92-.36-11.16-.12-4.8-1.26-8.76-3.42-11.88-2.04-3.24-5.52-4.92-10.44-5.04-4.92.12-8.4 1.8-10.44 5.04-2.04 3.12-3.18 7.08-3.42 11.88-.12 3.24-.24 6.96-.36 11.16v12.24l.36 11.34c.24 5.04 1.38 9.12 3.42 12.24 2.16 3.12 5.64 4.68 10.44 4.68Zm123.52 30.78c-9.96 0-18.48-1.2-25.56-3.6-6.96-2.4-12.66-5.4-17.1-9-4.32-3.72-7.5-7.68-9.54-11.88-2.04-4.2-3.12-8.1-3.24-11.7 0-1.08.36-1.98 1.08-2.7a3.41 3.41 0 0 1 2.7-1.26h29.88c1.56 0 2.76.3 3.6.9a7.22 7.22 0 0 1 2.34 2.34c.84 1.44 1.98 2.7 3.42 3.78a15.9 15.9 0 0 0 5.22 2.16c2.04.36 4.5.54 7.38.54 5.16 0 9.06-1.14 11.7-3.42 2.64-2.4 3.96-5.52 3.96-9.36s-1.32-6.6-3.96-8.28c-2.64-1.8-6.42-2.7-11.34-2.7h-21.24a4.67 4.67 0 0 1-3.42-1.44 4.8 4.8 0 0 1-1.26-3.24V58.52c0-1.68.3-3.06.9-4.14a6.87 6.87 0 0 1 2.34-2.52l27.18-19.26h-48.6a4.67 4.67 0 0 1-3.42-1.44 4.8 4.8 0 0 1-1.26-3.24V6.68c0-1.32.42-2.4 1.26-3.24A4.67 4.67 0 0 1 134.87 2h87.48c1.32 0 2.4.48 3.24 1.44a4.1 4.1 0 0 1 1.44 3.24v19.08c0 1.56-.3 2.88-.9 3.96a7.5 7.5 0 0 1-2.16 2.52l-24.3 19.8.72.36a56.8 56.8 0 0 1 17.28 6.12 31.02 31.02 0 0 1 12.24 11.7c3 5.04 4.5 11.4 4.5 19.08 0 8.16-2.46 15.3-7.38 21.42-4.8 6-11.4 10.68-19.8 14.04-8.28 3.36-17.88 5.04-28.8 5.04Z" fill="#fff"/>
</svg>
